<svg id="_4.5_star" data-name="4.5 star" xmlns="http://www.w3.org/2000/svg" width="18.0031in" height="2.7424in" viewBox="0 0 1296.2229 197.4523"><defs><style>.cls-1{fill:#ffce00;}.cls-2{fill:#757575;}</style></defs><title>GRO49</title><path class="cls-1" d="M128.7,36.4c2.4-4.9,6.4-4.9,8.9,0l24.7,50c2.4,4.9,8.9,9.6,14.3,10.4l55.1,8c5.4.8,6.7,4.6,2.7,8.4L194.5,152c-3.9,3.8-6.4,11.4-5.5,16.8l9.4,54.9c.9,5.4-2.3,7.8-7.2,5.2L142,203.1c-4.9-2.6-12.8-2.6-17.7,0L75,229c-4.9,2.6-8.1.2-7.2-5.2l9.4-54.9c.9-5.4-1.5-13-5.5-16.8L31.8,113.2c-3.9-3.8-2.7-7.6,2.7-8.4l55.1-8c5.4-.8,11.9-5.5,14.3-10.4Z" transform="translate(-29.5102 -32.6)"/><path class="cls-1" d="M401,36.4c2.4-4.9,6.4-4.9,8.9,0l24.7,50c2.4,4.9,8.9,9.6,14.3,10.4l55.1,8c5.4.8,6.7,4.6,2.7,8.4L466.8,152c-3.9,3.8-6.4,11.4-5.5,16.8l9.4,54.9c.9,5.4-2.3,7.8-7.2,5.2L414.2,203c-4.9-2.6-12.8-2.6-17.7,0l-49.3,26c-4.9,2.6-8.1.2-7.2-5.2l9.4-54.9c.9-5.4-1.5-13-5.5-16.8L304,113.2c-3.9-3.8-2.7-7.6,2.7-8.4l55.1-8c5.4-.8,11.9-5.5,14.3-10.4Z" transform="translate(-29.5102 -32.6)"/><path class="cls-1" d="M673.2,36.4c2.4-4.9,6.4-4.9,8.9,0l24.7,50c2.4,4.9,8.9,9.6,14.3,10.4l55.1,8c5.4.8,6.7,4.6,2.7,8.4L739,152c-3.9,3.8-6.4,11.4-5.5,16.8l9.4,54.9c.9,5.4-2.3,7.8-7.2,5.2L686.4,203c-4.9-2.6-12.8-2.6-17.7,0l-49.2,26c-4.9,2.6-8.1.2-7.2-5.2l9.4-54.9c.9-5.4-1.5-13-5.5-16.8l-39.9-38.9c-3.9-3.8-2.7-7.6,2.7-8.4l55.1-8c5.4-.8,11.9-5.5,14.3-10.4Z" transform="translate(-29.5102 -32.6)"/><path class="cls-1" d="M945.4,36.4c2.4-4.9,6.4-4.9,8.9,0l24.7,50c2.4,4.9,8.9,9.6,14.3,10.4l55.1,8c5.4.8,6.7,4.6,2.7,8.4l-39.9,38.9c-3.9,3.8-6.4,11.4-5.5,16.8l9.4,54.9c.9,5.4-2.3,7.8-7.2,5.2l-49.3-25.9c-4.9-2.6-12.8-2.6-17.7,0L891.7,229c-4.9,2.6-8.1.2-7.2-5.2l9.4-54.9c.9-5.4-1.5-13-5.5-16.8l-39.9-38.9c-3.9-3.8-2.7-7.6,2.7-8.4l55.1-8c5.4-.8,11.9-5.5,14.3-10.4Z" transform="translate(-29.5102 -32.6)"/><path class="cls-2" d="M1217.7,36.4c2.4-4.9,6.4-4.9,8.9,0l24.7,50c2.4,4.9,8.9,9.6,14.3,10.4l55.1,8c5.4.8,6.7,4.6,2.7,8.4l-39.9,38.9c-3.9,3.8-6.4,11.4-5.5,16.8l9.4,54.9c.9,5.4-2.3,7.8-7.2,5.2l-49.3-25.9c-4.9-2.6-12.8-2.6-17.7,0L1163.9,229c-4.9,2.6-8.1.2-7.2-5.2l9.4-54.9c.9-5.4-1.5-13-5.5-16.8l-39.9-38.9c-3.9-3.8-2.7-7.6,2.7-8.4l55.1-8c5.4-.8,11.9-5.5,14.3-10.4Z" transform="translate(-29.5102 -32.6)"/><path class="cls-2" d="M1096.6-33.3" transform="translate(-29.5102 -32.6)"/><path class="cls-1" d="M1274.3625,97.9845l-9.9384-1.4456a22.0963,22.0963,0,0,1-13.2-10.3l-24.2-49c.1.1-1.6-4.6-4.8-4.6V32.7c-.042-.0026-.0813-.0129-.1239-.0138V32.6c-3.2,0-4.9,4.7-4.8,4.6l-24.2,49a22.0962,22.0962,0,0,1-13.2,10.3l-55,8s-4.9.3-6.2,3.1,3.3,6.6,3.3,6.6l39.1,38.1a20.6252,20.6252,0,0,1,5,17.1l-9,52.6c-1.2,4.7.4,6.6.4,6.6,1.8,2.6,5.9.6,5.9.6l41.1138-21.6209v.2195l7.3781-3.88c4.4-2.7,10.4-2.8,10.4-2.8v-.03c1.1923.0546,6.2809.4223,10.14,2.7907l7.3782,3.88v-.1417l34.5522,18.17Z" transform="translate(-29.5102 -32.6)"/></svg>