<?xml version="1.0" encoding="utf-8"?>
<!-- Generator: Adobe Illustrator 27.7.0, SVG Export Plug-In . SVG Version: 6.00 Build 0)  -->
<svg version="1.1" id="Layer_1" xmlns="http://www.w3.org/2000/svg" xmlns:xlink="http://www.w3.org/1999/xlink" x="0px" y="0px"
	 viewBox="0 0 792 612" style="enable-background:new 0 0 792 612;" xml:space="preserve">
<style type="text/css">
	.st0{fill:#E1F3F7;stroke:#FFFFFF;stroke-miterlimit:10;}
</style>
<path class="st0" d="M373.98,88.05c0.92,1.7,1.44,3.87,2.82,5.02c8.79,7.31,18.48,13.69,26.58,21.68
	c57.23,56.43,114.11,113.22,171.21,169.79c12.69,12.57,25.89,24.62,38.72,37.06c1.98,1.92,3.2,4.6,5.91,8.6
	c-17.24,0-32.76-1.4-47.91,0.32c-23.67,2.69-40.23-5.88-56.81-22.8c-68.93-70.34-139.38-139.2-209.13-208.75
	c-2.94-2.93-4.48-7.25-6.67-10.92C323.8,88.05,348.89,88.05,373.98,88.05z"/>
<path class="st0" d="M777.76,402.26c-1.19-0.59-2.37-1.19-3.56-1.78c0.46-4.04,0.92-8.09,1.38-12.13c0.73,0.04,1.46,0.08,2.18,0.12
	C777.76,393.07,777.76,397.66,777.76,402.26z"/>
<path class="st0" d="M771.91,382.32c1.95-0.58,3.9-1.15,5.85-1.73c0,1.31,0,2.63,0,3.94c-0.89,0.71-1.79,1.43-2.68,2.14
	C774.02,385.22,772.97,383.77,771.91,382.32z"/>
<path class="st0" d="M775.07,386.67c0.89-0.71,1.79-1.43,2.68-2.14c0,1.31,0,2.63,0,3.94c-0.73-0.04-1.46-0.08-2.18-0.12
	C775.37,387.8,775.21,387.24,775.07,386.67z"/>
<path class="st0" d="M492.28,329.46c-5.64,0.37-8.44,0.71-11.25,0.71c-20.01,0.05-40.03-0.43-60.02,0.23
	c-9.43,0.31-16.5-3.08-22.86-9.16c-17.71-16.91-35.31-33.95-53.1-50.79c-20.99-19.89-42.29-39.46-63.13-59.5
	c-9.6-9.23-18.24-19.43-27.62-28.9c-6.39-6.45-10.91-6.22-17.03,0.17c-9.21,9.62-18.15,19.52-27.57,28.94
	c-27.98,27.99-55.89,56.07-84.35,83.58c-12.02,11.62-25.28,21.98-38.11,32.75c-1.65,1.38-4.09,2.58-6.17,2.59
	c-24.47,0.18-48.94,0.11-75.58,0.11c1.8-3.94,2.43-7.38,4.46-9.46c31.89-32.51,63.73-65.07,96.05-97.15
	c33.43-33.19,67.38-65.86,101.06-98.8c8.51-8.32,16.86-16.81,25.34-25.17c8.8-8.68,19.86-8.69,28.71,0.09
	c43.22,42.88,86.29,85.91,129.63,128.67c30.67,30.26,61.7,60.15,92.49,90.27C485.9,321.24,488.05,324.37,492.28,329.46z"/>
<path class="st0" d="M184.33,456.68c-6.07,15.01-7.45,15.95-23.34,15.95c-5.08,0-10.15,0-15.23,0c-13.79,0-18.22-6.21-13.98-19.55
	c-0.05-44.54-0.1-89.09-0.14-133.63c-0.01-1.13-0.02-2.27-0.03-3.4c0.03-0.66,0.06-1.32,0.1-1.98c2.57-4.46,4.36-9.68,7.85-13.23
	c10.57-10.74,21.68-20.97,32.87-31.08c2.68-2.42,6.48-3.62,9.76-5.38c0.77,2.96,1.54,5.91,2.31,8.87
	c-0.01,60.5-0.03,121-0.04,181.51C184.42,455.4,184.37,456.04,184.33,456.68z"/>
<path class="st0" d="M234.39,410.36c0,18.68,0,36.06,0,54.18c-6.92,0-13.67,0-21.12,0c0-38.32,0-77.19,0-116.53
	c0.29-0.13,1.12-0.81,1.96-0.82c22.96-0.16,18.9-1.73,19.19,18.46c0.09,6.53,0.01,13.06,0.01,20.21c13.74,0,27.1,0,41.3,0
	c0-12.45,0-25.07,0-37.2c1.34-0.84,1.86-1.43,2.38-1.44c21.1-0.3,17.68-1.38,17.75,16.76c0.13,33.42,0.04,66.83,0.04,100.78
	c-6.58,0-12.67,0-19.83,0c0-15.25,0.28-30.57-0.25-45.86c-0.1-2.9-3.23-8.03-5.21-8.16C258.63,409.98,246.57,410.36,234.39,410.36z"
	/>
<path class="st0" d="M431.86,347.5c0.49-0.06,1.76-0.34,3.03-0.38c20.64-0.62,23.84,3.55,18.7,23.66
	c-1.72,6.73-2.58,13.59,1.87,20.23c24.29-20.95,53.38-8.19,61.93,9.89c13.93,29.46-3.77,63.64-38.55,64.27
	c-4.02,0.07-8.09-1.63-12.12-2.59c-5.31-1.27-10.2-6.71-15.64,1.79c-1.71,2.67-11.41,1.51-16.86-0.01c-2.04-0.57-3.33-7.16-3.32-11
	c0.06-24.42,0.63-48.84,0.93-73.26C431.97,369.37,431.86,358.64,431.86,347.5z M477.5,441.67c17.37-1.58,23.53-8.03,22.76-22.97
	c-0.51-9.9-10.92-17.76-29.33-16.39c-12.28,0.92-19.64,10.37-18.36,23.37C453.58,436.09,464.18,442.88,477.5,441.67z"/>
<path class="st0" d="M387.21,389.17c-1.41-9.62,4.08-10.28,10.58-10.67c7.45-0.45,12,2.49,12.34,9.75
	c0.56,12.11,0.38,24.26,0.43,36.39c0.03,8.53-0.11,17.06-0.12,25.59c-0.01,15.53-1.36,17.17-16.68,14.72
	c-3.69-0.59-6.67-5.49-11.2-9.47c-7.78,6.71-17.94,14.1-29.83,9.18c-9.19-3.81-19-9.32-25.04-16.84
	c-12.58-15.68-12.91-34.19-1.15-50.98c6.56-9.36,16.22-14.31,27.99-17.21C367.56,376.41,375.26,385.86,387.21,389.17z
	 M364.49,402.26c-17.42-0.97-24.37,10.8-24.83,19.72c-0.53,10.32,12.63,21.53,24.46,21.65c12.33,0.12,25.23-11.25,24.99-22.02
	C388.87,410.87,377.95,402.29,364.49,402.26z"/>
<path class="st0" d="M716.29,467.5c-9.59-2.7-17.51-4.93-27.93-7.86c-25.4,13.86-41.35,3.28-53.87-12.1
	c-12.49-15.35-12.05-35.69,0.17-51.79c11.3-14.89,31.47-22.83,56.84-7.95c4.27-3.3,7.76-8.16,11.92-8.8
	c12.02-1.87,12.86-0.54,12.86,11.5C716.29,415.04,716.29,439.6,716.29,467.5z M670.67,441.68c3.19,0,5.52,0.18,7.81-0.03
	c12.62-1.18,21.62-16.32,16.12-27.05c-6.64-12.96-28.57-17.36-39.54-7.71c-6.68,5.87-10.5,12.81-6.16,21.96
	C653.46,438.46,660.85,442.9,670.67,441.68z"/>
<path class="st0" d="M775.07,386.67c0.13,0.57,0.3,1.13,0.5,1.68c-0.46,4.04-0.92,8.09-1.38,12.13c-3.67,0.86-7.34,1.73-11.85,2.79
	c0,19.67,0,40.17,0,60.63c-1.45,0.62-2.29,1.29-3.13,1.3c-23.15,0.1-18.8,1.92-19.11-18.37c-0.17-10.81-0.42-21.65,0.09-32.45
	c0.4-8.43-0.66-14.63-12.05-11.87c0-6.02,0.14-10.89-0.04-15.75c-0.17-4.81,0.58-8.02,6.7-8.52c1.94-0.16,4.77-4.6,5.02-7.28
	c0.69-7.46,0.24-15.02,0.24-23.2c6.97,0,13.72,0,21.81,0c0,5.92,0.7,12.43-0.17,18.71c-1.2,8.63,1.78,13.74,10.19,15.84
	C772.97,383.77,774.02,385.22,775.07,386.67z"/>
<path class="st0" d="M603.72,464.75c-20.29,1.27-20.29,1.27-20.29-17.24c0-11.16-0.56-22.35,0.18-33.46
	c0.58-8.75-2.4-12.82-11.22-11.89c-2.77-21.92-2.34-22.92,10.99-24.15c0-9.95,0-20,0-30.47c6.81,0,12.9,0,19.88,0
	c0,7.98-0.27,15.78,0.15,23.54c0.14,2.52,2.09,7.1,3.2,7.09c14.42-0.07,12.79,9.82,12.5,18.98c-0.04,1.29-0.12,2.58-0.23,4.68
	c-4.85,0.24-9.64,0.47-15.17,0.75C603.72,423.46,603.72,444.17,603.72,464.75z"/>
<path class="st0" d="M539.42,380.52c5.31-0.61,10.65-1.74,15.93-1.49c1.53,0.07,4.08,4.1,4.1,6.33c0.29,26.2,0.19,52.39,0.19,79.26
	c-6.49,0-12.58,0-20.33,0c0-27.16,0-54.57,0-81.99C539.35,381.93,539.39,381.23,539.42,380.52z"/>
<path class="st0" d="M548.66,349c6.65,0.4,13.19,0.56,13.05,10.11c-0.13,8.58-5.99,10.81-12.63,11.5
	c-7.44,0.78-13.67-5.1-13.15-11.97C536.5,351.02,541.68,348.73,548.66,349z"/>
<path class="st0" d="M131.64,319.45c0.05,44.54,0.1,89.09,0.14,133.63c-0.51-2.24-1.45-4.47-1.46-6.71
	c-0.09-40.05-0.09-80.1-0.01-120.15C130.32,323.97,131.18,321.71,131.64,319.45z"/>
<path class="st0" d="M184.5,273.25c-0.77-2.96-1.54-5.91-2.31-8.87c0.36-1,0.73-2.01,1.09-3.01c0.83,0.09,1.66,0.19,2.5,0.28
	C185.36,265.52,184.93,269.38,184.5,273.25z"/>
<path class="st0" d="M131.71,314.07c-0.03,0.66-0.06,1.32-0.1,1.98C131.65,315.39,131.68,314.73,131.71,314.07z"/>
<path class="st0" d="M539.42,380.52c-0.04,0.71-0.07,1.41-0.11,2.12C539.35,381.93,539.39,381.23,539.42,380.52z"/>
<path class="st0" d="M184.33,456.68c0.05-0.64,0.09-1.28,0.14-1.92c0.16,0.46,0.39,0.91,0.46,1.38
	C184.94,456.29,184.54,456.49,184.33,456.68z"/>
</svg>
